<?xml version="1.0" encoding="utf-8"?>
<!-- Generator: Adobe Illustrator 24.0.1, SVG Export Plug-In . SVG Version: 6.00 Build 0)  -->
<svg version="1.1" id="Calque_1" xmlns="http://www.w3.org/2000/svg" xmlns:xlink="http://www.w3.org/1999/xlink" x="0px" y="0px"
	 viewBox="0 0 77.1 56.5" style="enable-background:new 0 0 77.1 56.5;" xml:space="preserve">
<style type="text/css">
	.st0{fill:#BADADD;}
	.st1{opacity:0.84;fill:#255C69;enable-background:new    ;}
	.st2{font-family:'SigmarOne-Regular';}
	.st3{font-size:14px;}
	.st4{fill:#255C69;}
</style>
<title>logo-snow-tricks</title>
<path class="st0" d="M20.7,52.1c-3.8-9.2,7.2-16.1,12.3-22.4s9.9-12.8,14.5-19.5c1.5-2.4,3.2-4.6,5.1-6.6c1.9-2,4.5-3.3,7.3-3.6
	c4.8-0.2,9,3.4,9.5,8.2c0.1,3.1-1,6-3,8.3c-2,2.3-4.2,4.3-6.6,6.2c-5.3,4.3-9.8,9.4-13.6,15c-3.7,5.5-7.1,11.3-11.7,16.1
	c-2.8,2.6-6.8,3.4-10.3,1.9C22.5,55.1,21.3,53.7,20.7,52.1z"/>
<text transform="matrix(1 0 0 1 0 25.55)" class="st1 st2 st3">SNOW</text>
<text transform="matrix(1 0 0 1 0 42.35)" class="st4 st2 st3">TRICKS</text>
</svg>
